<svg xmlns="http://www.w3.org/2000/svg" width="43" height="41" viewBox="0 0 43.188 31.889">
  <g id="Icon_ionic-ios-menu" data-name="Icon ionic-ios-menu" transform="translate(-4.5 -10.125)">
    <path id="Path_26" data-name="Path 26" d="M45.889,12.375H6.3c-.99,0-1.8-.506-1.8-1.125h0c0-.619.81-1.125,1.8-1.125H45.889c.99,0,1.8.506,1.8,1.125h0C47.688,11.869,46.879,12.375,45.889,12.375Z" fill="#f574c4"/>
    <path id="Path_27" data-name="Path 27" d="M45.889,19.125H6.3c-.99,0-1.8-.506-1.8-1.125h0c0-.619.81-1.125,1.8-1.125H45.889c.99,0,1.8.506,1.8,1.125h0C47.688,18.619,46.879,19.125,45.889,19.125Z" transform="translate(0 8.069)" fill="#f574c4"/>
    <path id="Path_28" data-name="Path 28" d="M45.889,25.875H6.3c-.99,0-1.8-.506-1.8-1.125h0c0-.619.81-1.125,1.8-1.125H45.889c.99,0,1.8.506,1.8,1.125h0C47.688,25.369,46.879,25.875,45.889,25.875Z" transform="translate(0 16.139)" fill="#f574c4"/>
  </g>
</svg>
