<svg xmlns="http://www.w3.org/2000/svg" width="78.732" height="76.868" viewBox="0 0 78.732 76.868">
  <path id="Icon_awesome-facebook-square" data-name="Icon awesome-facebook-square" d="M70.3,0H8.436A8.338,8.338,0,0,0,0,8.236v60.4a8.338,8.338,0,0,0,8.436,8.236H32.556V50.735H21.484v-12.3H32.556V29.059c0-10.664,6.5-16.554,16.462-16.554a68.653,68.653,0,0,1,9.757.83V23.8h-5.5c-5.415,0-7.1,3.281-7.1,6.645v7.987H58.264l-1.933,12.3H46.176V76.868H70.3a8.338,8.338,0,0,0,8.436-8.236V8.236A8.338,8.338,0,0,0,70.3,0Z"/>
</svg>
