<svg xmlns="http://www.w3.org/2000/svg" width="174.222" height="161.147" viewBox="0 0 174.222 161.147">
  <g id="Group_104" data-name="Group 104" transform="translate(-225.816 -1826.324)">
    <g id="Group_11" data-name="Group 11" transform="translate(1745.555 -4186.39) rotate(14)">
      <text id="FOLLOW" transform="translate(5.872 6278.144) rotate(-30)" fill="#fff" font-size="32" font-family="CocolaRegular, Cocola" letter-spacing="0.05em"><tspan x="0" y="0">FOLLOW</tspan></text>
      <text id="Us" transform="translate(61.919 6279.722) rotate(-30)" fill="#fff" font-size="38" font-family="CocolaRegular, Cocola" letter-spacing="0.05em"><tspan x="0" y="0">Us</tspan></text>
      <text id="_" data-name="!" transform="translate(103.977 6262.398) rotate(11)" fill="#fff" font-size="127" font-family="CocolaRegular, Cocola" letter-spacing="0.05em"><tspan x="0" y="0">!</tspan></text>
    </g>
    <g id="Group_80" data-name="Group 80" transform="translate(862 -112.3)">
      <path id="Icon_awesome-facebook-square" data-name="Icon awesome-facebook-square" d="M42.756,2.25H5.131A5.19,5.19,0,0,0,0,7.5V45.981a5.19,5.19,0,0,0,5.131,5.248H19.8V34.577H13.067V26.739H19.8V20.766c0-6.795,3.955-10.548,10.012-10.548a39.915,39.915,0,0,1,5.935.529v6.669H32.406c-3.293,0-4.32,2.09-4.32,4.234v5.089h7.352l-1.176,7.838H28.085V51.229H42.756a5.19,5.19,0,0,0,5.131-5.248V7.5A5.19,5.19,0,0,0,42.756,2.25Z" transform="translate(-636 2047.344)" fill="#fff"/>
      <path id="Icon_awesome-instagram" data-name="Icon awesome-instagram" d="M24.5,14.461A12.694,12.694,0,0,0,11.938,27.326,12.694,12.694,0,0,0,24.5,40.19,12.694,12.694,0,0,0,37.055,27.326,12.694,12.694,0,0,0,24.5,14.461Zm0,21.228a8.366,8.366,0,1,1,8.165-8.364A8.281,8.281,0,0,1,24.5,35.689Zm16-21.754a2.93,2.93,0,1,1-2.929-3A2.959,2.959,0,0,1,40.5,13.935Zm8.318,3.045c-.186-4.019-1.082-7.58-3.957-10.513S38.52,2.616,34.6,2.414c-4.044-.235-16.165-.235-20.209,0C10.474,2.6,7,3.522,4.124,6.456S.364,12.95.167,16.969c-.23,4.143-.23,16.559,0,20.7.186,4.019,1.082,7.58,3.957,10.513s6.339,3.852,10.263,4.053c4.044.235,16.165.235,20.209,0,3.924-.19,7.4-1.108,10.263-4.053s3.76-6.494,3.957-10.513c.23-4.143.23-16.548,0-20.691ZM43.592,42.116a8.37,8.37,0,0,1-4.656,4.77C35.711,48.2,28.06,47.893,24.5,47.893s-11.225.291-14.438-1.008A8.369,8.369,0,0,1,5.4,42.116c-1.279-3.3-.984-11.14-.984-14.79s-.284-11.5.984-14.79a8.37,8.37,0,0,1,4.656-4.77C13.283,6.456,20.934,6.758,24.5,6.758s11.225-.291,14.438,1.008a8.369,8.369,0,0,1,4.656,4.77c1.279,3.3.984,11.14.984,14.79S44.87,38.824,43.592,42.116Z" transform="translate(-577.364 2047.358)" fill="#fff"/>
      <path id="Icon_awesome-twitter-square" data-name="Icon awesome-twitter-square" d="M40.679,2.25H4.881A4.962,4.962,0,0,0,0,7.285V44.212a4.962,4.962,0,0,0,4.881,5.035h35.8a4.962,4.962,0,0,0,4.881-5.035V7.285A4.962,4.962,0,0,0,40.679,2.25ZM35.706,18.909c.02.294.02.6.02.892,0,9.1-6.712,19.575-18.977,19.575A18.472,18.472,0,0,1,6.509,36.292a13.627,13.627,0,0,0,1.607.084,13.115,13.115,0,0,0,8.278-2.937,6.708,6.708,0,0,1-6.234-4.773,6.975,6.975,0,0,0,3.01-.126,6.832,6.832,0,0,1-5.339-6.756V21.7a6.512,6.512,0,0,0,3.01.871,7.044,7.044,0,0,1-2.064-9.2,18.754,18.754,0,0,0,13.75,7.2,6.836,6.836,0,0,1,6.509-8.455,6.553,6.553,0,0,1,4.871,2.172,12.829,12.829,0,0,0,4.231-1.658,6.828,6.828,0,0,1-2.929,3.787,12.956,12.956,0,0,0,3.844-1.07A14.29,14.29,0,0,1,35.706,18.909Z" transform="translate(-517.633 2048.335)" fill="#fff"/>
    </g>
  </g>
</svg>
