<svg xmlns="http://www.w3.org/2000/svg" width="657.426" height="531.198" viewBox="0 0 657.426 531.198">
  <g id="Group_103" data-name="Group 103" transform="translate(-1251.278 -5035.246)">
    <g id="Group_69" data-name="Group 69" transform="translate(-79.401 -1981.369)">
      <g id="Group_11" data-name="Group 11" transform="translate(2944.054 911.55) rotate(14)">
        <text id="FOLLOW" transform="translate(-8.861 6525.212) rotate(-30)" fill="rgba(0,0,0,0.69)" font-size="124" font-family="CocolaRegular, Cocola" letter-spacing="0.05em"><tspan x="0" y="0">FOLLOW</tspan></text>
        <text id="Us" transform="translate(198.982 6560.8) rotate(-30)" fill="rgba(0,0,0,0.69)" font-size="137" font-family="CocolaRegular, Cocola" letter-spacing="0.05em"><tspan x="0" y="0">Us</tspan></text>
        <text id="_" data-name="!" transform="translate(346.073 6465.322) rotate(25)" fill="rgba(0,0,0,0.69)" font-size="409" font-family="CocolaRegular, Cocola" letter-spacing="0.05em"><tspan x="0" y="0">!</tspan></text>
      </g>
      <g id="Group_12" data-name="Group 12" transform="translate(570.735 380.839)">
        <path id="Icon_awesome-instagram" data-name="Icon awesome-instagram" d="M82.327,41.758c-23.358,0-42.2,18.57-42.2,41.592s18.841,41.592,42.2,41.592,42.2-18.57,42.2-41.592S105.685,41.758,82.327,41.758Zm0,68.633a27.043,27.043,0,1,1,27.435-27.04A27.289,27.289,0,0,1,82.327,110.39Zm53.768-70.334a9.844,9.844,0,1,1-9.843-9.7A9.75,9.75,0,0,1,136.095,40.056ZM164.044,49.9c-.624-13-3.636-24.506-13.3-33.991-9.622-9.484-21.3-12.452-34.486-13.1-13.589-.76-54.319-.76-67.908,0-13.148.615-24.827,3.584-34.486,13.068s-12.634,21-13.3,33.991C-.2,63.26-.2,103.4.573,116.8c.624,13,3.636,24.506,13.3,33.991s21.3,12.452,34.486,13.1c13.589.76,54.319.76,67.908,0,13.185-.615,24.864-3.584,34.486-13.1,9.622-9.484,12.634-21,13.3-33.991.771-13.394.771-53.5,0-66.9Zm-17.555,81.266a27.579,27.579,0,0,1-15.646,15.421c-10.834,4.235-36.543,3.258-48.516,3.258s-37.718.941-48.516-3.258a27.579,27.579,0,0,1-15.646-15.421c-4.3-10.679-3.305-36.018-3.305-47.818S13.9,46.174,18.165,35.531A27.579,27.579,0,0,1,33.811,20.111c10.834-4.235,36.543-3.258,48.516-3.258s37.718-.941,48.516,3.258a27.579,27.579,0,0,1,15.646,15.421c4.3,10.679,3.305,36.018,3.305,47.818S150.785,120.526,146.488,131.168Z" transform="translate(986.498 7002.512)" fill="rgba(0,0,0,0.69)"/>
        <path id="Icon_awesome-facebook-square" data-name="Icon awesome-facebook-square" d="M142.222,2.25H17.067A16.84,16.84,0,0,0,0,18.854V140.613a16.84,16.84,0,0,0,17.067,16.6h48.8V104.531h-22.4v-24.8h22.4v-18.9c0-21.5,13.156-33.373,33.3-33.373a139.377,139.377,0,0,1,19.74,1.674v21.1H107.794c-10.955,0-14.372,6.614-14.372,13.4v16.1h24.455l-3.911,24.8H93.422v52.685h48.8a16.84,16.84,0,0,0,17.067-16.6V18.854a16.84,16.84,0,0,0-17.067-16.6Z" transform="translate(795.095 7004.11)" fill="rgba(0,0,0,0.69)"/>
        <path id="Icon_awesome-twitter-square" data-name="Icon awesome-twitter-square" d="M136.5,2.25H16.38C7.337,2.25,0,9.842,0,19.2V143.488c0,9.357,7.337,16.948,16.38,16.948H136.5c9.043,0,16.38-7.592,16.38-16.948V19.2C152.879,9.842,145.542,2.25,136.5,2.25ZM119.812,58.321c.068.989.068,2.013.068,3,0,30.613-22.522,65.887-63.677,65.887A61.847,61.847,0,0,1,21.84,116.829a45.585,45.585,0,0,0,5.392.282,43.925,43.925,0,0,0,27.778-9.887A22.521,22.521,0,0,1,34.091,91.159a23.334,23.334,0,0,0,10.1-.424A22.979,22.979,0,0,1,26.276,68v-.282a21.8,21.8,0,0,0,10.1,2.931A23.758,23.758,0,0,1,29.45,39.678,62.871,62.871,0,0,0,75.586,63.9c-3.174-15.713,8.19-28.459,21.84-28.459a21.959,21.959,0,0,1,16.346,7.309,42.97,42.97,0,0,0,14.2-5.579,22.972,22.972,0,0,1-9.828,12.747,43.37,43.37,0,0,0,12.9-3.6A48.04,48.04,0,0,1,119.812,58.321Z" transform="translate(1183.229 7002.5)" fill="rgba(0,0,0,0.69)"/>
      </g>
    </g>
  </g>
</svg>
