<svg xmlns="http://www.w3.org/2000/svg" width="79.56" height="83.929" viewBox="0 0 79.56 83.929">
  <path id="Icon_awesome-instagram" data-name="Icon awesome-instagram" d="M41.974,19.382c-11.908,0-21.513,9.107-21.513,20.4s9.605,20.4,21.513,20.4,21.513-9.107,21.513-20.4S53.882,19.382,41.974,19.382Zm0,33.66c-7.7,0-13.987-5.947-13.987-13.262S34.26,26.519,41.974,26.519,55.96,32.466,55.96,39.78,49.669,53.042,41.974,53.042ZM69.385,18.547a5.025,5.025,0,0,1-10.036,0,5.025,5.025,0,0,1,10.036,0Zm14.249,4.829C83.316,17,81.78,11.357,76.856,6.706,71.95,2.055,66,.6,59.274.28c-6.928-.373-27.692-.373-34.62,0C17.951.581,12,2.037,7.073,6.688S.632,16.985.295,23.359C-.1,29.927-.1,49.615.295,56.184.613,62.557,2.149,68.2,7.073,72.854s10.86,6.107,17.582,6.427c6.928.373,27.692.373,34.62,0,6.722-.3,12.676-1.758,17.582-6.427,4.906-4.651,6.441-10.3,6.778-16.67.393-6.569.393-26.239,0-32.808Zm-8.95,39.856a13.814,13.814,0,0,1-7.976,7.563c-5.523,2.077-18.63,1.6-24.734,1.6s-19.229.462-24.734-1.6a13.815,13.815,0,0,1-7.976-7.563C7.073,57.995,7.578,45.568,7.578,39.78S7.092,21.548,9.264,16.328A13.814,13.814,0,0,1,17.24,8.766c5.523-2.077,18.63-1.6,24.734-1.6s19.229-.462,24.734,1.6a13.815,13.815,0,0,1,7.976,7.563c2.191,5.237,1.685,17.664,1.685,23.452S76.875,58.012,74.684,63.232Z" transform="translate(0 83.929) rotate(-90)"/>
</svg>
