<svg xmlns="http://www.w3.org/2000/svg" xmlns:xlink="http://www.w3.org/1999/xlink" width="757.021" height="832.24" viewBox="0 0 757.021 832.24">
  <defs>
    <filter id="Ellipse_122" x="0" y="0" width="757.021" height="832.24" filterUnits="userSpaceOnUse">
      <feOffset dy="7" input="SourceAlpha"/>
      <feGaussianBlur stdDeviation="3.5" result="blur"/>
      <feFlood flood-opacity="0.161"/>
      <feComposite operator="in" in2="blur"/>
      <feComposite in="SourceGraphic"/>
    </filter>
  </defs>
  <g id="Group_87" data-name="Group 87" transform="translate(62.455 -757.674)">
    <g transform="matrix(1, 0, 0, 1, -62.46, 757.67)" filter="url(#Ellipse_122)">
      <ellipse id="Ellipse_122-2" data-name="Ellipse 122" cx="330.122" cy="248.438" rx="330.122" ry="248.438" transform="matrix(-0.44, 0.9, -0.9, -0.44, 746.52, 221.32)" fill="rgba(255,46,161,0.79)" opacity="0.839"/>
    </g>
    <text id="NUTRITIONAL_INFORMATION" data-name="NUTRITIONAL 
INFORMATION" transform="translate(196.422 971.337)" fill="#fff" font-size="34" font-family="CocolaRegular, Cocola" letter-spacing="0.066em"><tspan x="0" y="0">NUTRITIONAL</tspan><tspan y="0" letter-spacing="0.05em"> </tspan><tspan letter-spacing="0.05em"><tspan x="0" y="25">INFORMATION</tspan></tspan></text>
    <text id="PER_100_G" data-name="PER 100 G" transform="translate(334.514 1017.837)" fill="#fff" font-size="18" font-family="CocolaRegular, Cocola"><tspan x="0" y="0">PER 100 G</tspan></text>
    <text id="ENERGY" transform="translate(123.5 1096.283)" fill="#fff" font-size="18" font-family="CocolaRegular, Cocola"><tspan x="0" y="0">ENERGY</tspan></text>
    <line id="Line_3" data-name="Line 3" x2="308.422" y2="1.554" transform="translate(123.578 1113.783)" fill="none" stroke="#fff" stroke-width="1"/>
    <line id="Line_9" data-name="Line 9" x2="308.422" y2="1.554" transform="translate(123.578 1177.337)" fill="none" stroke="#fff" stroke-width="1"/>
    <line id="Line_10" data-name="Line 10" x2="308.422" y2="1.554" transform="translate(123.078 1239.837)" fill="none" stroke="#fff" stroke-width="1"/>
    <line id="Line_11" data-name="Line 11" x2="308.422" y2="1.554" transform="translate(123.078 1302.337)" fill="none" stroke="#fff" stroke-width="1"/>
    <text id="FAT_OF_WHICH_SATURATES" data-name="FAT
OF WHICH SATURATES" transform="translate(125.5 1148.837)" fill="#fff" font-size="17" font-family="CocolaRegular, Cocola"><tspan x="0" y="0">FAT</tspan><tspan x="0" y="13">OF WHICH SATURATES</tspan></text>
    <text id="CARBOHYDRATES_OF_WHICH_SUGARS" data-name="CARBOHYDRATES
OF WHICH SUGARS" transform="translate(123.5 1204.837)" fill="#fff" font-size="17" font-family="CocolaRegular, Cocola"><tspan x="0" y="0">CARBOHYDRATES</tspan><tspan x="0" y="15">OF WHICH SUGARS</tspan></text>
    <text id="PROTEIN" transform="translate(125.5 1277.891)" fill="#fff" font-size="21" font-family="CocolaRegular, Cocola"><tspan x="0" y="0">PROTEIN</tspan></text>
    <text id="SALT" transform="translate(125.5 1339.837)" fill="#fff" font-size="20" font-family="CocolaRegular, Cocola"><tspan x="0" y="0">SALT</tspan></text>
    <text id="_1414kJ_333kcal" data-name="1414kJ/333kcal" transform="translate(308.5 1096.837)" fill="#fff" font-size="14" font-family="HelveticaNeue, Helvetica Neue"><tspan x="0" y="0">1414kJ/333kcal</tspan></text>
    <text id="_0.5g" data-name="                &lt;0.5g" transform="translate(309.5 1147.837)" fill="#fff" font-size="14" font-family="HelveticaNeue, Helvetica Neue"><tspan x="0" y="0" xml:space="preserve">                &lt;0.5g</tspan></text>
    <text id="_0.1g" data-name="                  0.1g" transform="translate(309.5 1161.837)" fill="#fff" font-size="14" font-family="HelveticaNeue, Helvetica Neue"><tspan x="0" y="0" xml:space="preserve">                  0.1g</tspan></text>
    <text id="_40g" data-name="                   40g" transform="translate(308.5 1202.218)" fill="#fff" font-size="14" font-family="HelveticaNeue, Helvetica Neue"><tspan x="0" y="0" xml:space="preserve">                   40g</tspan></text>
    <text id="_25g" data-name="                   25g" transform="translate(308.5 1218.218)" fill="#fff" font-size="14" font-family="HelveticaNeue, Helvetica Neue"><tspan x="0" y="0" xml:space="preserve">                   25g</tspan></text>
    <text id="_30g" data-name="                  30g" transform="translate(313.5 1273.891)" fill="#fff" font-size="14" font-family="HelveticaNeue, Helvetica Neue"><tspan x="0" y="0" xml:space="preserve">                  30g</tspan></text>
    <text id="_0.07g" data-name="               0.07g" transform="translate(312.5 1342.337)" fill="#fff" font-size="14" font-family="HelveticaNeue, Helvetica Neue"><tspan x="0" y="0" xml:space="preserve">               0.07g</tspan></text>
    <path id="Path_15" data-name="Path 15" d="M122.712,54.8C190.2,54.8,236.53,44.347,236.53,57.9S190.2,95.442,122.712,95.442.7,59.609.7,46.053,55.22,54.8,122.712,54.8Z" transform="translate(228.09 1408.604) rotate(-31)" fill="#fff" opacity="0.648"/>
  </g>
</svg>
