<svg xmlns="http://www.w3.org/2000/svg" width="57.35" height="49.866" viewBox="0 0 57.35 49.866">
  <path id="Icon_awesome-recycle" data-name="Icon awesome-recycle" d="M20.673,25.508c.362,1.363-1.358,2.4-2.7,1.672L13.414,24.7l-5.7,7.928C6.228,34.7,7.948,37.4,10.754,37.4h5.823a1.266,1.266,0,0,1,1.344,1.169v3.9a1.266,1.266,0,0,1-1.344,1.169H10.766c-8.438,0-13.587-8.088-9.119-14.305L7.34,21.4,2.778,18.922a1.5,1.5,0,0,1,.547-2.84L15.673,13.6a1.815,1.815,0,0,1,2.149,1.168l2.851,10.737ZM31.713,7.693l4.625,6.435-4.563,2.479a1.5,1.5,0,0,0,.546,2.84l12.348,2.479a1.815,1.815,0,0,0,2.149-1.168l2.851-10.737c.358-1.348-1.343-2.408-2.7-1.672l-4.557,2.476L37.793,4.39c-4.2-5.847-14.025-5.86-18.237,0l-2.012,2.8a1.084,1.084,0,0,0,.428,1.61l3.8,2.064a1.467,1.467,0,0,0,1.852-.372l2.012-2.8A3.891,3.891,0,0,1,31.713,7.693ZM55.7,29.328,52.62,25.036a1.467,1.467,0,0,0-1.852-.372l-3.793,2.061a1.084,1.084,0,0,0-.428,1.611l3.087,4.3c1.485,2.066-.23,4.768-3.04,4.768H35.843V32.727c0-1.384-1.931-2.083-3.059-1.1l-8.961,7.79a1.419,1.419,0,0,0,0,2.2l8.961,7.791c1.12.974,3.059.292,3.059-1.1V43.633h10.74C55.015,43.633,60.174,35.549,55.7,29.328Z" transform="translate(0 0)"/>
</svg>
