<svg xmlns="http://www.w3.org/2000/svg" width="83.861" height="81.152" viewBox="0 0 83.861 81.152">
  <path id="Icon_awesome-twitter-square" data-name="Icon awesome-twitter-square" d="M74.876,0H8.985A8.846,8.846,0,0,0,0,8.695V72.457a8.846,8.846,0,0,0,8.985,8.695h65.89a8.846,8.846,0,0,0,8.985-8.695V8.695A8.846,8.846,0,0,0,74.876,0ZM65.722,28.766c.037.507.037,1.033.037,1.54,0,15.705-12.354,33.8-34.929,33.8a35.617,35.617,0,0,1-18.85-5.326,26.719,26.719,0,0,0,2.958.145,25.141,25.141,0,0,0,15.237-5.072A12.25,12.25,0,0,1,18.7,45.612a13.661,13.661,0,0,0,5.541-.217,11.985,11.985,0,0,1-9.827-11.666v-.145a12.58,12.58,0,0,0,5.541,1.5,11.758,11.758,0,0,1-5.466-9.89,11.444,11.444,0,0,1,1.666-6A35.256,35.256,0,0,0,41.462,31.628a12,12,0,0,1,11.98-14.6,12.427,12.427,0,0,1,8.966,3.75A24.552,24.552,0,0,0,70.2,17.915,11.929,11.929,0,0,1,64.8,24.454a25.075,25.075,0,0,0,7.076-1.848A25.4,25.4,0,0,1,65.722,28.766Z"/>
</svg>
